<svg width="532" height="482" viewBox="0 0 532 482" fill="none" xmlns="http://www.w3.org/2000/svg">
<g clip-path="url(#clip0_18_26)">
<path d="M518 0.5H14C6.54416 0.5 0.5 6.54416 0.5 14V468C0.5 475.456 6.54416 481.5 14 481.5H518C525.456 481.5 531.5 475.456 531.5 468V14C531.5 6.54416 525.456 0.5 518 0.5Z" stroke="white" stroke-opacity="0.05"/>
<path d="M518 8H14C10.6863 8 8 10.6863 8 14V476C8 479.314 10.6863 482 14 482H518C521.314 482 524 479.314 524 476V14C524 10.6863 521.314 8 518 8Z" fill="white" fill-opacity="0.02"/>
<path d="M518 8.5H14C10.9624 8.5 8.5 10.9624 8.5 14V476C8.5 479.038 10.9624 481.5 14 481.5H518C521.038 481.5 523.5 479.038 523.5 476V14C523.5 10.9624 521.038 8.5 518 8.5Z" stroke="white" stroke-opacity="0.1"/>
<path d="M524 45.5249H8V46.4749H524V45.5249Z" fill="#22262A"/>
<path opacity="0.2" d="M19 232.5H26M19 240.5H26M19 248.5H26M19 256.5H26" stroke="white"/>
</g>
<defs>
<clipPath id="clip0_18_26">
<rect width="532" height="482" fill="white"/>
</clipPath>
</defs>
</svg>
