<svg width="96" height="34" viewBox="0 0 96 34" fill="none" xmlns="http://www.w3.org/2000/svg">
<g clip-path="url(#clip0_6_39)">
<path fill-rule="evenodd" clip-rule="evenodd" d="M9.30705 29.936L4.85427 17.0585L0.642822 21.2719L9.30705 29.936Z" fill="#E72525"/>
<path fill-rule="evenodd" clip-rule="evenodd" d="M13.6891 8.22563L21.9147 0C22.5046 2.99149 26.695 5.74933 28.1294 7.73725C28.6944 8.52246 28.704 9.39007 28.0854 9.79801C26.7927 9.40349 25.6493 9.27514 24.7473 9.56432C24.0636 9.79036 23.4411 10.0546 23.2113 10.5507C22.9604 11.0907 23.1462 12.2514 24.0808 12.033C24.3815 11.9621 24.5308 11.3378 24.4772 11.0122C25.8102 10.1811 28.5488 10.4645 28.7595 14.3178C28.7749 15.239 28.3114 16.0261 27.0416 16.5853C24.9062 17.3438 23.1289 16.9473 21.5107 16.0434L13.6929 8.22563H13.6891Z" fill="#8AEFDD"/>
<path fill-rule="evenodd" clip-rule="evenodd" d="M21.9483 0.00144305L13.7312 8.21859H13.735L20.0743 14.5578C20.0849 14.5582 20.0956 14.5586 20.1063 14.559C17.2537 11.7064 20.1392 3.61585 21.9709 0.0611599C21.9665 0.0407843 21.9623 0.0203976 21.9582 0L21.9483 0.00144305Z" fill="#71D0BB"/>
<path fill-rule="evenodd" clip-rule="evenodd" d="M13.5374 8.37708L21.2842 24.5047L26.3441 29.5645C25.195 28.4155 25.195 26.5348 26.3441 25.3856C27.4931 24.2366 29.3739 24.2366 30.523 25.3856L30.6379 25.5006L30.6494 25.4891L13.5374 8.37708Z" fill="#B5CE00"/>
<path fill-rule="evenodd" clip-rule="evenodd" d="M21.2848 24.5047L13.5379 8.37708L9.34753 12.5675L21.2848 24.5047Z" fill="#6FBA2C"/>
<path fill-rule="evenodd" clip-rule="evenodd" d="M26.3294 29.8096L10.2018 22.0628L5.14197 17.0029C6.29106 18.152 8.17174 18.152 9.32088 17.0029C10.47 15.8538 10.47 13.9731 9.32088 12.824L9.20595 12.7091L9.21743 12.6976L26.3294 29.8096Z" fill="#9A1C56"/>
<path fill-rule="evenodd" clip-rule="evenodd" d="M10.2019 22.063L26.3296 29.8098L22.1392 34.0002L10.2019 22.063Z" fill="#E5016F"/>
<path fill-rule="evenodd" clip-rule="evenodd" d="M4.85413 17.0585L9.30686 29.936L13.5184 25.7227L4.85413 17.0585Z" fill="#F29100"/>
<path fill-rule="evenodd" clip-rule="evenodd" d="M47.4607 12.3964C46.0646 11.0205 44.243 10.3215 42.4214 10.3215C37.6337 10.3215 35.25 13.8499 35.25 17.6687C35.25 21.236 37.3249 24.5887 42.4214 24.5887C44.8052 24.5887 46.4917 23.677 47.8287 22.1458V16.4278H42.0146V18.7154H45.4839V21.1194C44.4168 21.9719 43.4867 22.205 42.4214 22.205C39.0484 22.205 37.7502 19.8989 37.7502 17.6687C37.7502 14.8781 39.5144 12.6683 42.4214 12.6683C43.6031 12.6683 44.9605 13.1528 45.8722 14.0257L47.4607 12.3983V12.3964ZM53.6724 14.5286C50.6286 14.5286 48.7294 16.7773 48.7294 19.5106C48.7294 22.2438 50.5897 24.4925 53.6909 24.4925C56.7922 24.4925 58.6728 22.2642 58.6728 19.5106C58.6728 16.757 56.7145 14.5286 53.6724 14.5286ZM53.6909 16.6794C55.2795 16.6794 56.2891 18.0755 56.2891 19.5087C56.2891 20.9419 55.4163 22.3196 53.6909 22.3196C51.9656 22.3196 51.0927 20.9623 51.0927 19.5087C51.0927 18.0552 51.9841 16.6794 53.6909 16.6794ZM59.727 14.721V24.2761H62.0924V19.2369C62.0924 17.4726 63.235 16.8143 64.476 16.8143C65.2508 16.8143 65.6964 17.027 66.1809 17.4338L67.2458 15.3793C66.7225 14.8559 65.7723 14.4676 64.7845 14.4676C63.7972 14.4676 62.8264 14.6414 62.0906 15.825L61.9163 14.721H59.727ZM77.0451 20.3427H69.5833C69.7388 21.5244 70.7654 22.3788 72.4332 22.3788C73.3063 22.3788 74.449 22.0496 74.993 21.4874L76.5054 22.9798C75.4975 24.0265 73.8497 24.5313 72.3962 24.5313C69.1006 24.5313 67.1444 22.4953 67.1444 19.4329C67.1444 16.3705 69.1213 14.4324 72.2226 14.4324C75.3239 14.4324 77.4173 16.4094 77.0494 20.3446L77.0451 20.3427ZM69.6222 18.3843H74.778C74.6226 17.1435 73.6536 16.524 72.2966 16.524C71.0168 16.524 69.9701 17.1435 69.6222 18.3843ZM78.2952 10.7284V24.278H80.6406V10.7302H78.2952V10.7284ZM86.6392 14.5268C83.5956 14.5268 81.6964 16.7755 81.6964 19.5087C81.6964 22.2419 83.5567 24.4907 86.658 24.4907C89.7593 24.4907 91.6396 22.2623 91.6396 19.5087C91.6396 16.7551 89.6816 14.5268 86.6392 14.5268ZM86.658 16.6775C88.2463 16.6775 89.256 18.0737 89.256 19.5069C89.256 20.94 88.3835 22.3178 86.658 22.3178C84.9325 22.3178 84.0594 20.9604 84.0594 19.5069C84.0594 18.0533 84.9507 16.6775 86.658 16.6775Z" fill="white"/>
<path fill-rule="evenodd" clip-rule="evenodd" d="M94.1569 21.9829C94.4878 21.9829 94.7877 22.1179 95.0056 22.3343C95.2242 22.5507 95.3572 22.8521 95.3572 23.1831C95.3572 23.5141 95.2224 23.8137 95.0056 24.0319C94.7895 24.2502 94.4878 24.3833 94.1569 24.3833C93.826 24.3833 93.5266 24.2483 93.3081 24.0319C93.0919 23.8156 92.9565 23.5141 92.9565 23.1831C92.9565 22.8521 93.0919 22.5525 93.3081 22.3343C93.5248 22.1179 93.826 21.9829 94.1569 21.9829ZM94.8745 22.4656C94.6911 22.2825 94.4361 22.1678 94.1569 22.1678C93.8776 22.1678 93.6226 22.2807 93.4392 22.4656C93.2565 22.6486 93.1417 22.9039 93.1417 23.1831C93.1417 23.4623 93.2546 23.7175 93.4392 23.9006C93.6226 24.0837 93.8776 24.1984 94.1569 24.1984C94.4361 24.1984 94.6911 24.0856 94.8745 23.9006C95.0579 23.7175 95.172 23.4623 95.172 23.1831C95.172 22.9039 95.0597 22.6486 94.8745 22.4656Z" fill="white"/>
<path fill-rule="evenodd" clip-rule="evenodd" d="M94.5302 23.7915L94.1531 23.3606H93.8739V23.7915H93.7039V22.5636H94.2679C94.3972 22.5636 94.4986 22.6006 94.5781 22.6727C94.6559 22.7448 94.6965 22.841 94.6965 22.9612C94.6965 23.0647 94.6674 23.1517 94.6061 23.2219C94.5448 23.2922 94.4634 23.3347 94.3602 23.3514L94.7488 23.7897H94.5302V23.7915ZM94.2734 22.7226H93.8757V23.1998H94.2734C94.3511 23.1998 94.4136 23.1775 94.4598 23.135C94.5065 23.0925 94.5284 23.0333 94.5284 22.9612C94.5284 22.889 94.5065 22.8299 94.4598 22.7873C94.4136 22.7448 94.3529 22.7226 94.2734 22.7226Z" fill="white"/>
</g>
<defs>
<clipPath id="clip0_6_39">
<rect width="94.7143" height="34" fill="white" transform="translate(0.642822)"/>
</clipPath>
</defs>
</svg>
