<svg width="120" height="34" viewBox="0 0 120 34" fill="none" xmlns="http://www.w3.org/2000/svg">
<path d="M9.68904 0L0 7.38209V11.9959L7.84348 7.84348V24.9146L4.15243 22.6077V13.8414L0 17.0711V24.9146L9.68904 32.7581L12.4573 30.4512V7.84348L15.687 9.68904V28.6057L19.8394 24.9146V7.84348L9.68904 0Z" fill="white"/>
<path d="M36.1522 9.22781C39.3689 9.22781 41.3918 11.3592 41.3918 14.7681C41.3918 18.1769 39.3689 20.301 36.1522 20.301C32.9278 20.301 30.9126 18.1769 30.9126 14.7681C30.9126 11.3592 32.9278 9.22781 36.1522 9.22781ZM36.1522 10.6908C34.0285 10.6908 32.6876 12.2653 32.6876 14.7681C32.6876 17.2635 34.0285 18.8379 36.1522 18.8379C38.276 18.8379 39.6091 17.2635 39.6091 14.7681C39.6091 12.2653 38.276 10.6908 36.1522 10.6908Z" fill="white"/>
<path d="M49.8401 12.3098V20.1227H48.2357V18.8007H48.197C47.7474 19.7365 46.9181 20.2638 45.6701 20.2638C43.8952 20.2638 42.8101 19.1573 42.8101 17.3674V12.3098H44.4843V17.0555C44.4843 18.2438 45.0733 18.8825 46.2282 18.8825C47.4374 18.8825 48.1659 18.0804 48.1659 16.8624V12.3098H49.8401Z" fill="white"/>
<path d="M51.9872 10.4606H53.6691V12.3099H55.2193V13.5798H53.6691V17.8873C53.6691 18.5631 53.9791 18.8676 54.6612 18.8676C54.8318 18.8676 55.103 18.8527 55.2115 18.8305V20.1005C55.0255 20.145 54.6535 20.1747 54.2814 20.1747C52.6305 20.1747 51.9872 19.5732 51.9872 18.0656V13.5798H50.8013V12.3099H51.9872V10.4606Z" fill="white"/>
<path d="M56.452 14.523C56.452 13.1268 57.7386 12.1688 59.6453 12.1688C61.4592 12.1688 62.7299 13.1417 62.7844 14.5304H61.2111C61.1334 13.8249 60.5369 13.3867 59.5989 13.3867C58.6922 13.3867 58.0876 13.8101 58.0876 14.4265C58.0876 14.9092 58.4905 15.236 59.3351 15.4365L60.7073 15.741C62.3502 16.1198 62.9705 16.7139 62.9705 17.8651C62.9705 19.291 61.5833 20.2713 59.5833 20.2713C57.6533 20.2713 56.3744 19.3132 56.2427 17.8799H57.9013C58.0331 18.63 58.6377 19.0459 59.6609 19.0459C60.6685 19.0459 61.2888 18.6448 61.2888 18.0136C61.2888 17.516 60.9786 17.2412 60.1259 17.0332L58.6685 16.6916C57.196 16.35 56.452 15.6147 56.452 14.523Z" fill="white"/>
<path d="M64.327 20.1227V12.3098H66.0012V20.1227H64.327ZM65.1641 11.1661C64.629 11.1661 64.1948 10.7577 64.1948 10.2527C64.1948 9.74022 64.629 9.33176 65.1641 9.33176C65.7067 9.33176 66.1403 9.74022 66.1403 10.2527C66.1403 10.7577 65.7067 11.1661 65.1641 11.1661Z" fill="white"/>
<path d="M70.7757 20.2564C68.7137 20.2564 67.3496 18.682 67.3496 16.2163C67.3496 13.7507 68.7137 12.1836 70.76 12.1836C71.9305 12.1836 72.8603 12.7481 73.3177 13.6096H73.349V9.40604H75.0308V20.1227H73.4029V18.7933H73.3722C72.8916 19.6846 71.9618 20.2564 70.7757 20.2564ZM71.2174 13.5353C69.8922 13.5353 69.0627 14.575 69.0627 16.2163C69.0627 17.8651 69.8922 18.8973 71.2174 18.8973C72.5038 18.8973 73.3647 17.8502 73.3647 16.2163C73.3647 14.5973 72.5038 13.5353 71.2174 13.5353Z" fill="white"/>
<path d="M80.1617 13.461C78.9913 13.461 78.1698 14.3151 78.0846 15.496H82.1617C82.1229 14.3002 81.3321 13.461 80.1617 13.461ZM82.1542 17.8279H83.7426C83.5101 19.2538 82.0997 20.2713 80.2318 20.2713C77.8365 20.2713 76.3872 18.7191 76.3872 16.2535C76.3872 13.8026 77.8597 12.1688 80.1617 12.1688C82.4249 12.1688 83.8359 13.6987 83.8359 16.0678V16.6173H78.0771V16.7139C78.0771 18.073 78.9292 18.9716 80.2707 18.9716C81.2237 18.9716 81.9292 18.5111 82.1542 17.8279Z" fill="white"/>
<path d="M93.0748 20.1227H91.3386V10.8394H87.9131V9.40604H96.4934V10.8394H93.0748V20.1227Z" fill="white"/>
<path d="M99.1207 13.461C97.9503 13.461 97.1288 14.3151 97.0436 15.496H101.121C101.082 14.3002 100.291 13.461 99.1207 13.461ZM101.113 17.8279H102.702C102.469 19.2538 101.059 20.2713 99.1908 20.2713C96.7955 20.2713 95.3462 18.7191 95.3462 16.2535C95.3462 13.8026 96.8187 12.1688 99.1207 12.1688C101.384 12.1688 102.795 13.6987 102.795 16.0678V16.6173H97.036V16.7139C97.036 18.073 97.8882 18.9716 99.2291 18.9716C100.183 18.9716 100.888 18.5111 101.113 17.8279Z" fill="white"/>
<path d="M111.096 14.9983H109.499C109.329 14.1666 108.678 13.5056 107.585 13.5056C106.291 13.5056 105.438 14.5379 105.438 16.2163C105.438 17.9319 106.298 18.927 107.6 18.927C108.631 18.927 109.306 18.3849 109.499 17.4788H111.111C110.933 19.1424 109.546 20.2713 107.585 20.2713C105.252 20.2713 103.733 18.7414 103.733 16.2163C103.733 13.7358 105.252 12.1688 107.569 12.1688C109.67 12.1688 110.949 13.461 111.096 14.9983Z" fill="white"/>
<path d="M112.359 20.1227V9.40604H114.018V13.617H114.057C114.506 12.7035 115.398 12.1762 116.638 12.1762C118.428 12.1762 119.498 13.3199 119.498 15.0874V20.1227H117.816V15.3994C117.816 14.2482 117.212 13.5576 116.033 13.5576C114.793 13.5576 114.034 14.3745 114.034 15.6073V20.1227H112.359Z" fill="white"/>
</svg>
