<svg width="120" height="24" viewBox="0 0 120 24" fill="none" xmlns="http://www.w3.org/2000/svg">
<g clip-path="url(#clip0_11_15)">
<path d="M29.4982 1.89046L29.4967 1.88891C28.7686 1.16081 27.5881 1.16081 26.86 1.88891L9.35224 19.3967C8.62412 20.1248 8.62412 21.3053 9.35224 22.0333L9.35376 22.0349C10.0819 22.763 11.2623 22.763 11.9905 22.0349L29.4982 4.52715C30.2263 3.79905 30.2263 2.61857 29.4982 1.89046Z" fill="white"/>
<path d="M30.3455 9.02796L30.344 9.02644C29.6159 8.29832 28.4354 8.29832 27.7073 9.02644L19.4357 17.298C18.7076 18.0261 18.7076 19.2066 19.4357 19.9347L19.4373 19.9362C20.1654 20.6643 21.3458 20.6643 22.074 19.9362L30.3455 11.6647C31.0736 10.9366 31.0736 9.75608 30.3455 9.02796Z" fill="white"/>
<path d="M8.89839 14.4562L8.89996 14.4577C9.62803 15.1858 10.8085 15.1858 11.5366 14.4577L21.6751 4.31926C22.4032 3.59116 22.4032 2.41068 21.6751 1.68258L21.6735 1.68102C20.9454 0.952925 19.7649 0.952925 19.0368 1.68102L8.89839 11.8195C8.17026 12.5476 8.17026 13.7281 8.89839 14.4562Z" fill="white"/>
<path d="M1.31854 14.0935L1.32009 14.095C2.04819 14.8231 3.22867 14.8231 3.95678 14.095L14.0952 3.95659C14.8233 3.22849 14.8233 2.04801 14.0952 1.31991L14.0937 1.31835C13.3656 0.590253 12.1851 0.590253 11.457 1.31835L1.31854 11.4568C0.590436 12.1849 0.590436 13.3654 1.31854 14.0935Z" fill="white"/>
<path d="M21.1324 10.2282L21.1308 10.2266C20.4027 9.49852 19.2222 9.49852 18.4942 10.2266L16.515 12.2057C15.787 12.9338 15.787 14.1143 16.515 14.8423L16.5166 14.8439C17.2447 15.572 18.4252 15.572 19.1533 14.8439L21.1324 12.8649C21.8605 12.1367 21.8605 10.9563 21.1324 10.2282Z" fill="white"/>
<path d="M30.3475 9.02723L30.3459 9.02571C29.6178 8.29758 28.4374 8.29758 27.7092 9.02571L27.7077 9.02723C26.9796 9.75535 26.9796 10.9359 27.7077 11.6639L27.7092 11.6655C28.4374 12.3936 29.6178 12.3936 30.3459 11.6655L30.3475 11.6639C31.0756 10.9359 31.0756 9.75535 30.3475 9.02723Z" fill="white"/>
<path d="M29.7069 1.65383L29.7053 1.65227C28.9772 0.924177 27.7967 0.924177 27.0686 1.65227L27.0671 1.65383C26.339 2.38193 26.339 3.56242 27.0671 4.29052L27.0686 4.29207C27.7967 5.02018 28.9772 5.02018 29.7053 4.29207L29.7069 4.29052C30.4349 3.56242 30.4349 2.38193 29.7069 1.65383Z" fill="white"/>
<path d="M1.32073 14.0947L1.32229 14.0962C2.05039 14.8244 3.23087 14.8244 3.95897 14.0962L5.74016 12.315C6.46823 11.587 6.46823 10.4065 5.74016 9.6784L5.73859 9.67683C5.01048 8.94871 3.82999 8.94871 3.1019 9.67683L1.32073 11.458C0.592634 12.1861 0.592634 13.3666 1.32073 14.0947Z" fill="white"/>
<path d="M49.139 12.9276H41.4632C41.516 13.6152 41.7364 14.1397 42.1287 14.5033C42.5187 14.867 42.9969 15.0477 43.5656 15.0477C44.4118 15.0477 45.0002 14.6907 45.3308 13.9767H48.9406C48.7555 14.7039 48.4205 15.3584 47.9401 15.9402C47.4575 16.522 46.8514 16.9782 46.1264 17.3088C45.3991 17.6394 44.5859 17.8047 43.6868 17.8047C42.6025 17.8047 41.6372 17.5733 40.791 17.1104C39.9447 16.6476 39.2836 15.9865 38.8075 15.127C38.3315 14.2675 38.0935 13.2626 38.0935 12.1122C38.0935 10.9618 38.3271 9.95692 38.7965 9.09742C39.2659 8.23793 39.9249 7.57678 40.7711 7.11402C41.6174 6.65121 42.5893 6.4198 43.6868 6.4198C44.7843 6.4198 45.7098 6.6446 46.5429 7.09416C47.376 7.54371 48.0282 8.18506 48.4977 9.01809C48.9671 9.85112 49.2007 10.823 49.2007 11.9337C49.2007 12.2511 49.1808 12.5816 49.1412 12.9254L49.139 12.9276ZM45.7275 11.0434C45.7275 10.4615 45.5292 9.99879 45.1325 9.65498C44.7358 9.31117 44.2399 9.13929 43.6449 9.13929C43.0499 9.13929 42.5959 9.30457 42.2058 9.63517C41.8158 9.96572 41.5733 10.4351 41.4808 11.0434H45.7253H45.7275Z" fill="white"/>
<path d="M55.6747 2.97083V17.6481H52.283V2.97083H55.6747Z" fill="white"/>
<path d="M69.8175 12.9276H62.1417C62.1946 13.6152 62.4168 14.1397 62.8072 14.5033C63.1971 14.867 63.6755 15.0477 64.2461 15.0477C65.0924 15.0477 65.6809 14.6907 66.0116 13.9767H69.621C69.436 14.7039 69.1012 15.3584 68.6206 15.9402C68.138 16.522 67.5317 16.9782 66.8049 17.3088C66.0776 17.6394 65.2643 17.8047 64.3651 17.8047C63.2809 17.8047 62.3157 17.5733 61.4694 17.1104C60.6231 16.6476 59.9618 15.9865 59.486 15.127C59.0096 14.2675 58.7717 13.2626 58.7717 12.1122C58.7717 10.9618 59.0054 9.95692 59.475 9.09742C59.9445 8.23793 60.6011 7.57678 61.4495 7.11402C62.2957 6.65121 63.2678 6.4198 64.3651 6.4198C65.4624 6.4198 66.3883 6.6446 67.221 7.09416C68.0542 7.54371 68.7045 8.18506 69.1761 9.01809C69.6456 9.85112 69.8788 10.823 69.8788 11.9337C69.8788 12.2511 69.8594 12.5816 69.8196 12.9254L69.8175 12.9276ZM66.4056 11.0434C66.4056 10.4615 66.2075 9.99879 65.8109 9.65498C65.4142 9.31117 64.9185 9.13929 64.3232 9.13929C63.7284 9.13929 63.2741 9.30457 62.8842 9.63517C62.4938 9.96572 62.2517 10.4351 62.1611 11.0434H66.4056Z" fill="white"/>
<path d="M77.3963 14.4747L79.7963 6.58069H83.4063L79.4788 17.6482H75.294L71.3665 6.58069H74.9963L77.3963 14.4747Z" fill="white"/>
<path d="M85.5549 9.09962C85.9846 8.24013 86.5688 7.57898 87.3114 7.11622C88.0518 6.6534 88.8782 6.422 89.7905 6.422C90.5708 6.422 91.2541 6.58067 91.8447 6.89801C92.4331 7.21536 92.8848 7.6319 93.2024 8.14759V6.58067H96.5938V17.6482H93.2024V16.0813C92.8717 16.5969 92.4111 17.0135 91.8247 17.3308C91.2363 17.6482 90.5509 17.8069 89.7706 17.8069C88.8719 17.8069 88.0518 17.571 87.3114 17.1016C86.5709 16.6322 85.9846 15.9645 85.5549 15.0984C85.1252 14.2323 84.9114 13.2318 84.9114 12.0924C84.9114 10.953 85.1252 9.95691 85.5549 9.09742V9.09962ZM92.4971 10.1112C92.0275 9.62191 91.4569 9.3773 90.7825 9.3773C90.1081 9.3773 89.5348 9.61751 89.0658 10.1001C88.5963 10.5828 88.3626 11.2483 88.3626 12.0924C88.3626 12.9364 88.5963 13.6108 89.0658 14.1067C89.5348 14.6025 90.1081 14.8516 90.7825 14.8516C91.4569 14.8516 92.0275 14.6069 92.4971 14.1177C92.966 13.6284 93.2024 12.9607 93.2024 12.1144C93.2024 11.2682 92.966 10.6004 92.4971 10.1112Z" fill="white"/>
<path d="M106.502 14.7722V17.6482H104.776C103.547 17.6482 102.588 17.3463 101.9 16.7446C101.213 16.143 100.869 15.1623 100.869 13.7981V9.39493H99.5203V6.57849H100.869V3.88324H104.261V6.58069H106.482V9.39713H104.261V13.84C104.261 14.1706 104.34 14.4086 104.498 14.554C104.657 14.6995 104.922 14.7722 105.292 14.7722H106.502Z" fill="white"/>
<path d="M119.936 12.9276H112.261C112.314 13.6152 112.536 14.1397 112.924 14.5033C113.314 14.867 113.795 15.0477 114.364 15.0477C115.209 15.0477 115.798 14.6907 116.128 13.9767H119.738C119.553 14.7039 119.218 15.3584 118.738 15.9402C118.255 16.522 117.649 16.9782 116.922 17.3088C116.194 17.6394 115.382 17.8047 114.483 17.8047C113.398 17.8047 112.433 17.5733 111.587 17.1104C110.741 16.6476 110.079 15.9865 109.603 15.127C109.127 14.2675 108.889 13.2626 108.889 12.1122C108.889 10.9618 109.123 9.95692 109.594 9.09742C110.063 8.23793 110.721 7.57678 111.569 7.11402C112.415 6.65121 113.387 6.4198 114.485 6.4198C115.582 6.4198 116.508 6.6446 117.341 7.09416C118.174 7.54371 118.824 8.18506 119.296 9.01809C119.765 9.85112 120 10.823 120 11.9337C120 12.2511 119.981 12.5816 119.941 12.9254L119.936 12.9276ZM116.525 11.0434C116.525 10.4615 116.327 9.99879 115.93 9.65498C115.534 9.31117 115.037 9.13929 114.443 9.13929C113.847 9.13929 113.394 9.30457 113.004 9.63517C112.613 9.96572 112.371 10.4351 112.281 11.0434H116.525Z" fill="white"/>
</g>
<defs>
<clipPath id="clip0_11_15">
<rect width="120" height="23.5808" fill="white"/>
</clipPath>
</defs>
</svg>
