<svg width="120" height="50" viewBox="0 0 120 50" fill="none" xmlns="http://www.w3.org/2000/svg">
<g clip-path="url(#clip0_11_31)">
<path fill-rule="evenodd" clip-rule="evenodd" d="M45.7253 7.29539C45.8782 7.44857 46.0214 7.60929 46.1567 7.77612C48.9246 11.2084 47.9469 17.5485 44.1034 24.3693C43.9223 24.0596 43.7368 23.7498 43.5446 23.4392C43.4392 23.2698 43.3295 23.0996 43.2199 22.9294L43.2193 22.9286L43.2189 22.9279L43.1381 22.8024C45.26 18.2644 45.7038 14.2264 44.0552 11.7951C43.9838 11.6901 43.9091 11.5872 43.8298 11.4882L43.7946 11.4441C43.7329 11.3663 43.6711 11.2887 43.6031 11.2157C43.6013 11.2247 43.599 11.2339 43.5968 11.2431L43.5934 11.2567C43.5921 11.2621 43.5909 11.2676 43.5898 11.273C43.0771 13.7096 42.0417 16.3881 40.5488 19.1539C40.3227 18.8636 40.0947 18.5742 39.8596 18.2847C39.753 18.1536 39.6435 18.0229 39.534 17.8921L39.5329 17.8907L39.5318 17.8894C39.49 17.8395 39.4482 17.7897 39.4067 17.7399C40.6609 14.9416 41.2891 12.3396 41.1968 10.1827C41.191 10.0449 41.1839 9.90753 41.172 9.77327C38.9623 9.15747 36.006 9.61757 32.7405 10.9854C32.5148 11.08 32.2879 11.1784 32.0594 11.2819C31.8379 11.3819 31.6152 11.4858 31.3913 11.5936C31.1763 11.6974 30.9601 11.8044 30.7428 11.9155C29.5743 12.5139 28.3798 13.2169 27.1759 14.0189C26.9858 14.1454 26.7954 14.2727 26.6049 14.4048C26.3955 14.5491 26.1858 14.698 25.9759 14.8483C25.7941 14.9789 25.6126 15.1127 25.4307 15.2473C23.6297 16.5828 21.8288 18.1266 20.0881 19.8626C18.6222 21.3245 17.2929 22.8303 16.1087 24.3425C15.5067 23.5195 14.9465 22.6973 14.4339 21.8805C14.3049 21.6749 14.1798 21.4697 14.0565 21.2646C15.1612 19.9323 16.3598 18.6128 17.6518 17.3238C19.2028 15.7772 20.7982 14.3699 22.4056 13.0953C22.4666 13.0471 22.5275 12.9984 22.5884 12.9497L22.589 12.9492C22.6967 12.8631 22.8043 12.7771 22.9122 12.6936C23.1205 12.5327 23.3285 12.3777 23.5369 12.2224L23.6321 12.1515L23.6911 12.1074L23.692 12.1067L23.6925 12.1063L23.693 12.106C23.8498 11.989 24.0071 11.8715 24.164 11.7582C25.2898 10.9409 26.4158 10.1957 27.5329 9.52433C27.7225 9.41045 27.9113 9.3008 28.1003 9.19108L28.1283 9.17486C28.3767 9.03135 28.625 8.88863 28.8723 8.75204C29.0812 8.63724 29.2889 8.52698 29.4966 8.41751C32.64 6.75778 35.6531 5.72322 38.3021 5.39525C38.3582 5.38826 38.415 5.38001 38.4717 5.37175C38.5601 5.35891 38.6485 5.34604 38.7345 5.33796C36.1055 3.66032 31.7431 4.25399 26.8898 6.64775C26.6801 6.75116 26.4694 6.85739 26.258 6.96784C25.9498 7.12812 25.6406 7.29539 25.3294 7.46975C25.1337 7.57898 24.9371 7.69353 24.7407 7.80851C23.6438 8.45075 22.5321 9.17694 21.4185 9.98247C21.2434 10.1094 21.0684 10.2387 20.8932 10.3697C20.606 10.5838 20.319 10.8031 20.0321 11.0276L19.9609 11.0832C19.8216 11.1918 19.6823 11.3004 19.543 11.412C18.1576 12.5257 16.7813 13.7578 15.4395 15.0997C14.3817 16.1578 13.3924 17.2376 12.4751 18.3261C11.9757 17.2725 11.562 16.2435 11.2432 15.2538C11.1592 14.9934 11.0819 14.7356 11.0107 14.4811C11.6258 13.8056 12.2639 13.1355 12.9259 12.4734C13.876 11.5231 14.8425 10.6238 15.818 9.77131C15.9602 9.64678 16.1024 9.52353 16.2453 9.40108C16.6175 9.08241 16.9909 8.77108 17.3651 8.46698C17.5227 8.33884 17.6809 8.21204 17.8388 8.08629C18.7923 7.32863 19.7498 6.61996 20.7063 5.96069C20.7519 5.92926 20.7977 5.89767 20.8433 5.86608L20.8438 5.8657C20.9663 5.78107 21.089 5.69624 21.2113 5.61445C21.6193 5.34045 22.0269 5.07475 22.4335 4.81984C22.5727 4.73249 22.7114 4.64858 22.85 4.5647L22.8508 4.56424C22.8983 4.53546 22.9459 4.50667 22.9935 4.47776C30.8663 -0.303975 38.3054 -1.50875 41.8927 2.09769C42.0409 2.24714 42.1783 2.40448 42.3099 2.56639C43.0767 3.50962 43.5678 4.66748 43.8032 5.9914C43.9431 6.05409 44.078 6.12429 44.2125 6.19482C44.7718 6.48918 45.2816 6.84992 45.7253 7.29539ZM36.2887 23.2398C37.0885 22.0673 37.798 20.9013 38.4126 19.7569C38.5321 19.9098 38.6476 20.0631 38.7631 20.2164L38.8471 20.3277C39.0447 20.5891 39.2373 20.851 39.426 21.1129C38.7541 22.2145 38.0109 23.3238 37.2028 24.4325C37.0452 24.22 36.8861 24.0084 36.7238 23.7968C36.6014 23.6369 36.4759 23.4776 36.3503 23.318L36.3499 23.3175L36.2887 23.2398ZM39.8499 28.3643C40.6337 27.2623 41.338 26.1636 41.955 25.0811C42.0808 25.309 42.2054 25.536 42.3237 25.7622C42.4714 26.0444 42.613 26.3257 42.7492 26.6055C42.0928 27.6215 41.3763 28.6415 40.6024 29.6592L40.5563 29.5764L40.556 29.5758C40.4491 29.3839 40.3423 29.1919 40.2304 28.9999C40.1306 28.8281 40.0263 28.6558 39.9222 28.4838L39.9216 28.4827L39.8499 28.3643ZM34.6575 34.4682C36.0082 33.1213 37.2435 31.7373 38.3556 30.3459C38.4719 30.5696 38.5846 30.7918 38.6937 31.014C38.7999 31.2305 38.9029 31.4453 39.002 31.6602C37.9575 32.9041 36.8324 34.1366 35.6243 35.3415C34.5693 36.394 33.4931 37.3832 32.4069 38.3108C32.2035 38.2159 31.9997 38.117 31.7946 38.0148C31.5729 37.9038 31.3496 37.7878 31.1259 37.6694C32.318 36.6891 33.5009 35.6221 34.6575 34.4682ZM27.431 40.4022C26.7025 40.883 25.9773 41.3314 25.2597 41.7386C25.4861 41.8722 25.7117 42.001 25.9368 42.1277C26.1953 42.2721 26.4525 42.4132 26.7087 42.5476C27.3885 42.1155 28.0703 41.6555 28.7524 41.17L28.6878 41.1341C28.4864 41.0221 28.2851 40.9101 28.0825 40.7922C27.9077 40.6907 27.7322 40.5845 27.5566 40.4781L27.431 40.4022ZM22.3126 36.81C21.5616 37.2851 20.8156 37.7222 20.0786 38.1195C20.2684 38.2736 20.4587 38.4236 20.6487 38.5728C20.8894 38.7617 21.1299 38.9474 21.3707 39.129C22.0841 38.696 22.8006 38.2363 23.5187 37.7457C23.4551 37.6979 23.3914 37.6504 23.3278 37.603C23.1767 37.4903 23.0254 37.3775 22.8745 37.26C22.7506 37.1636 22.627 37.0636 22.5034 36.9637L22.5029 36.9633L22.5024 36.9629L22.5019 36.9626L22.5014 36.9621L22.5009 36.9618L22.5001 36.961C22.4376 36.9105 22.3751 36.86 22.3126 36.81ZM11.9025 43.7737C13.8977 45.1732 17.0102 45.1312 20.6073 43.8809C20.8271 44.0323 21.0468 44.1801 21.2665 44.3251C21.6132 44.5555 21.9595 44.7783 22.3052 44.9938C16.0828 47.9326 10.5251 48.3023 7.5872 45.4037C7.58175 45.3982 7.576 45.3934 7.57024 45.3887C7.56363 45.3831 7.55708 45.3776 7.5509 45.3712C7.10573 44.9241 6.74347 44.4118 6.4499 43.8493C6.3719 43.6989 6.29604 43.5474 6.22796 43.391C4.7692 43.1015 3.5205 42.4909 2.54894 41.5327C2.54228 41.5262 2.53531 41.5201 2.52832 41.5139C2.51999 41.5065 2.51163 41.4991 2.5037 41.4912C-0.701578 38.268 -0.0709026 31.9718 3.51677 25.0439C3.63888 25.2742 3.76294 25.5053 3.89154 25.7364C4.49383 26.8221 5.16617 27.9184 5.90473 29.0187C4.45493 32.8402 4.27036 36.189 5.61217 38.3767C5.61825 38.3143 5.62776 38.2501 5.63728 38.1859C5.64447 38.1373 5.65166 38.0888 5.65738 38.041C5.90145 36.0114 6.56567 33.7654 7.61108 31.4091L7.70714 31.5359C7.81783 31.682 7.92871 31.8283 8.04247 31.9742C8.76779 32.9068 9.5402 33.8343 10.3552 34.7538C9.64777 37.094 9.48314 39.1989 9.93479 40.879C10.0351 40.8894 10.1378 40.8964 10.2407 40.9032L10.2898 40.9065C11.8718 41.0095 13.7033 40.712 15.6847 40.0519C15.8368 40.1847 15.9895 40.3142 16.142 40.4437L16.1425 40.4441L16.143 40.4445L16.1435 40.4449L16.144 40.4453L16.1448 40.446L16.2461 40.532C16.5683 40.806 16.891 41.0752 17.2146 41.3379C15.1479 42.2754 13.1584 42.9338 11.315 43.2856L11.3049 43.288C11.3068 43.2899 11.3088 43.2917 11.3108 43.2934C11.314 43.2962 11.3172 43.2989 11.3205 43.3014C11.3258 43.3057 11.331 43.31 11.3359 43.3149C11.5121 43.4835 11.7032 43.6334 11.9025 43.7737ZM13.5304 28.0123C12.8769 27.1934 12.254 26.3712 11.6742 25.5482C11.5883 25.4263 11.5065 25.3044 11.4247 25.1826C11.3734 25.1063 11.3223 25.03 11.2701 24.9538C10.7955 25.6447 10.3433 26.3339 9.92426 27.0198C10.0574 27.2218 10.1944 27.4236 10.3331 27.6256C10.9268 28.4915 11.5684 29.36 12.2565 30.2259C12.6412 29.4962 13.0661 28.7567 13.5304 28.0123ZM31.4709 31.1146C33.0697 29.5156 34.5308 27.8712 35.8494 26.2123C35.709 26.0095 35.5658 25.806 35.4199 25.6025C35.2827 25.4108 35.1436 25.219 35.0016 25.0276C33.6773 26.7766 32.1628 28.5223 30.473 30.2121C28.973 31.7122 27.4296 33.0736 25.8788 34.2874C26.0701 34.4327 26.2613 34.5745 26.4525 34.7148C26.6426 34.8542 26.8323 34.9905 27.0224 35.125C28.5265 33.9031 30.0177 32.5685 31.4709 31.1146ZM9.53273 22.209C9.07349 22.8877 8.64179 23.5648 8.24414 24.2358C7.64512 23.1391 7.13022 22.0607 6.70845 21.0151C6.60528 20.7592 6.50634 20.5051 6.41408 20.2533C6.80592 19.6848 7.21373 19.1161 7.64071 18.548C7.72404 18.7343 7.81337 18.9225 7.90269 19.1105L7.96588 19.2438C8.4269 20.2192 8.94975 21.2093 9.53273 22.209ZM27.817 9.17461C28.0654 9.0311 28.3138 8.88845 28.5611 8.75186C27.9056 8.27216 27.2499 7.81831 26.5956 7.3882C26.3027 7.53845 26.0082 7.695 25.7122 7.85773C25.5129 7.96733 25.3135 8.079 25.113 8.19441C25.8105 8.60057 26.515 9.04702 27.2217 9.52414C27.4114 9.4102 27.6002 9.30055 27.7892 9.19078L27.817 9.17461ZM5.99792 11.896C5.94843 11.5673 5.90368 11.2409 5.87516 10.923C4.42518 13.1642 4.63406 16.6873 6.205 20.7088C6.30247 20.9586 6.40526 21.2102 6.51326 21.4632C6.96039 22.5116 7.49604 23.5892 8.1163 24.6844C8.24151 24.9053 8.36898 25.1263 8.50067 25.348C8.908 26.0339 9.34698 26.724 9.81749 27.4172C9.95194 27.6151 10.0898 27.8137 10.2292 28.0116C10.8411 28.8817 11.5008 29.7525 12.2069 30.6201C12.3544 30.8017 12.5029 30.9825 12.6544 31.1642C13.5347 32.2142 14.4793 33.257 15.4892 34.2795C16.8824 35.6903 18.3148 36.9795 19.7565 38.1415C19.9466 38.2948 20.1369 38.448 20.3275 38.5963C20.579 38.7926 20.831 38.9848 21.0827 39.1729C21.2832 39.3229 21.483 39.4681 21.6831 39.6132C22.784 40.4086 23.8823 41.1263 24.966 41.7593C25.1955 41.8943 25.4242 42.0247 25.652 42.1513C25.9228 42.302 26.1923 42.4472 26.4606 42.5867C26.6998 42.7104 26.938 42.8312 27.1748 42.9476C31.5623 45.0931 35.5343 45.7424 38.1619 44.5367C38.3482 44.4507 38.5301 44.3591 38.7024 44.2545C36.0216 43.973 32.9436 42.9271 29.7322 41.2242C29.5134 41.1084 29.2935 40.9863 29.0734 40.8641L29.0637 40.8587L28.9988 40.8225C28.7974 40.7105 28.5963 40.5987 28.3938 40.4808C28.2189 40.3793 28.0433 40.273 27.8677 40.1666L27.7424 40.0908C26.6364 39.421 25.5223 38.684 24.4078 37.8699C24.2797 37.776 24.1516 37.6786 24.0235 37.5812C23.9591 37.5321 23.8945 37.483 23.8301 37.4344C23.7664 37.3867 23.7028 37.3392 23.6392 37.2918C23.4881 37.1791 23.3369 37.0663 23.1859 36.9487C23.0612 36.8518 22.9367 36.7511 22.8123 36.6505C22.7496 36.5998 22.6868 36.549 22.624 36.4987C20.9664 35.1722 19.3222 33.7005 17.7271 32.0813C16.4917 30.8268 15.3461 29.5441 14.2856 28.25C14.1357 28.0676 13.9881 27.8843 13.8417 27.701C13.1881 26.8821 12.5652 26.0599 11.9855 25.2369C11.8997 25.1151 11.8179 24.9932 11.7361 24.8714C11.6848 24.7951 11.6335 24.7187 11.5814 24.6425C11.1019 23.9404 10.6436 23.239 10.2203 22.5408C10.1273 22.3875 10.0391 22.2349 9.95083 22.0821L9.95041 22.0814C9.91508 22.0202 9.87975 21.9591 9.84406 21.8979C9.26108 20.8981 8.73822 19.908 8.2772 18.9326L8.21396 18.7993C8.12463 18.6113 8.0353 18.4231 7.95204 18.2368C6.95304 15.9965 6.29224 13.8534 5.99792 11.896ZM44.0279 24.8947C44.139 25.0891 44.2503 25.2836 44.3554 25.4769C48.2255 32.5872 48.9952 39.1242 45.7092 42.3605C45.3327 42.7317 44.908 43.0404 44.4488 43.3033C44.235 43.4258 44.015 43.5395 43.7858 43.64C43.7758 43.6444 43.7662 43.6492 43.7566 43.654L43.7458 43.6594L43.7367 43.6638C43.7333 43.6654 43.7299 43.667 43.7264 43.6684L43.721 43.6707C43.418 45.1495 42.7866 46.4115 41.7977 47.3825C41.2303 47.9398 40.565 48.3719 39.8242 48.6978C35.9095 50.4211 29.7589 48.9896 23.2868 45.0984C23.091 44.9803 22.8945 44.8569 22.698 44.7335L22.6165 44.6824C22.2707 44.4669 21.9245 44.2441 21.5779 44.0137C21.3581 43.8687 21.1383 43.721 20.9186 43.5695C19.9781 42.9239 19.0361 42.2314 18.0982 41.4895C17.96 41.3805 17.8221 41.268 17.6842 41.1555L17.6064 41.092L17.5258 41.0265C17.2023 40.7638 16.8796 40.4945 16.5574 40.2205L16.456 40.1345L16.4555 40.1341C16.3022 40.0041 16.1488 39.8739 15.996 39.7405C14.9323 38.8112 13.8797 37.8228 12.8466 36.7768C12.2547 36.1768 11.6852 35.5711 11.1314 34.9605C10.9749 34.7887 10.82 34.616 10.6664 34.4424C9.85153 33.5229 9.07912 32.5953 8.35373 31.6629C8.24004 31.517 8.12916 31.3706 8.01847 31.2244L7.92234 31.0977C7.47718 30.5098 7.04665 29.9203 6.63865 29.3317C6.5132 29.1512 6.39198 28.9701 6.27075 28.789L6.21602 28.7073C5.47749 27.607 4.80514 26.5107 4.20285 25.425C4.07425 25.1939 3.95019 24.9628 3.82808 24.7325C0.0276428 17.5647 -0.677467 11.0176 2.65527 7.74459C3.39639 7.01639 4.3008 6.49543 5.33251 6.16078C5.72467 6.03458 6.1333 5.93203 6.56096 5.85855C6.57259 5.83314 6.58551 5.80859 6.59843 5.78404C6.60914 5.76367 6.61985 5.74327 6.6299 5.72238C6.94949 5.05648 7.35785 4.45575 7.87692 3.9447C8.60004 3.23312 9.48418 2.72539 10.4921 2.40074C13.6291 1.38901 18.0012 2.19441 22.745 4.50847C22.3384 4.76338 21.9307 5.02908 21.5227 5.30308C21.4002 5.38498 21.2777 5.46974 21.1551 5.55448C21.1093 5.58615 21.0635 5.61781 21.0177 5.64931C18.1874 4.63717 15.6515 4.38019 13.7207 4.99628C13.1577 5.17562 12.6438 5.42638 12.1917 5.75726C12.0497 5.86146 11.9139 5.97272 11.7838 6.09187C11.8552 6.10716 11.9281 6.12563 12.0009 6.14406C12.0487 6.15618 12.0965 6.16831 12.1438 6.17945C13.89 6.58549 15.7503 7.24598 17.6765 8.15559C17.3022 8.45969 16.9289 8.77108 16.5568 9.08969C16.4139 9.21214 16.2717 9.33539 16.1294 9.45992C14.2572 8.80426 12.5123 8.46943 10.9782 8.48694C10.7569 8.48933 10.5383 8.49612 10.3262 8.514C9.835 10.233 9.99553 12.4109 10.7271 14.8383C10.8027 15.0888 10.8854 15.3421 10.973 15.5984C11.3122 16.5868 11.7403 17.6113 12.2547 18.6598C12.3638 18.8823 12.4769 19.1053 12.5937 19.3299C12.9781 20.069 13.4029 20.8178 13.8683 21.5727C13.993 21.7754 14.1218 21.9781 14.2523 22.1813C14.7754 22.9965 15.3423 23.8163 15.9538 24.6357C16.0937 24.8233 16.2368 25.0106 16.3811 25.198C17.5418 26.7037 18.845 28.2029 20.2812 29.6617C22.0317 31.439 23.8459 33.0186 25.6612 34.3832C25.8536 34.5275 26.0458 34.6703 26.2379 34.8097C26.433 34.9516 26.6279 35.0911 26.8229 35.2281C27.0208 35.3668 27.2189 35.5038 27.4167 35.6376C28.6095 36.442 29.7941 37.1483 30.9528 37.7499C31.1797 37.8675 31.4055 37.981 31.6301 38.0904C31.8407 38.1934 32.0501 38.2915 32.2584 38.3872C32.4949 38.4959 32.7299 38.5996 32.9631 38.6985C36.153 40.0502 39.0472 40.5205 41.2327 39.9481C41.2354 39.9249 41.2372 39.901 41.2389 39.877C41.2404 39.8574 41.2418 39.8375 41.2438 39.8183C41.4551 37.6388 40.8805 34.954 39.6241 32.0439C39.525 31.8137 39.4213 31.5818 39.3133 31.349C39.2142 31.1342 39.1113 30.9193 39.005 30.7028C38.8959 30.4806 38.7832 30.2585 38.6669 30.0346C38.062 28.8719 37.359 27.6864 36.5624 26.4921C36.431 26.2959 36.297 26.0988 36.1607 25.901C36.0203 25.6982 35.8771 25.4947 35.7311 25.2912C35.5939 25.0995 35.4548 24.9077 35.3129 24.7163C33.9723 22.9054 32.4278 21.0951 30.6968 19.3425C29.263 17.8906 27.7878 16.5665 26.3033 15.3786L26.4172 15.2945C26.5617 15.1877 26.7063 15.0808 26.8509 14.9781C27.0198 14.8572 27.1883 14.7413 27.3567 14.6254L27.4686 14.5483C28.8681 15.716 30.2543 16.9817 31.6061 18.3504C33.2811 20.0472 34.8057 21.7924 36.1672 23.5504C36.2614 23.6721 36.3522 23.7942 36.443 23.9162C36.4931 23.9837 36.5432 24.0511 36.5939 24.1184C36.6399 24.1794 36.6862 24.2404 36.7325 24.3015C36.8426 24.4466 36.9528 24.5918 37.059 24.7371C37.1641 24.8808 37.2653 25.0243 37.3667 25.1682L37.3672 25.1688C37.4026 25.219 37.438 25.2693 37.4736 25.3196C38.2787 26.4531 39.0201 27.5867 39.6829 28.7105C39.7695 28.8572 39.8518 29.0036 39.934 29.1497C39.9726 29.2183 40.0113 29.2873 40.0504 29.356C40.0883 29.4231 40.1267 29.4902 40.1651 29.5573C40.2497 29.705 40.3341 29.8526 40.4139 29.9998C40.497 30.1522 40.5753 30.3039 40.6534 30.4553L40.6545 30.4575C40.6894 30.5252 40.7243 30.593 40.7597 30.6606C42.2145 33.4572 43.2017 36.155 43.6501 38.5932C43.8818 38.358 44.0843 38.0993 44.2637 37.822C45.8263 35.4073 45.4095 31.4569 43.3943 27.0094C43.2872 26.7718 43.1768 26.5343 43.0605 26.2942C42.9244 26.0145 42.7828 25.7331 42.635 25.451C42.5167 25.2247 42.3922 24.9977 42.2663 24.7698C41.6516 23.6574 40.9463 22.5271 40.1564 21.3915C40.0195 21.1948 39.8793 20.9983 39.7374 20.8016C39.5486 20.5397 39.3561 20.2777 39.1585 20.0164L39.0745 19.9051C38.959 19.7519 38.8435 19.5985 38.724 19.4455C37.6034 18.0082 36.3519 16.5779 34.9801 15.1853C33.8791 14.0675 32.7529 13.0269 31.6171 12.0688C31.835 11.9581 32.0522 11.8515 32.268 11.7477C32.4868 11.6436 32.7047 11.5409 32.9209 11.4444C33.9129 12.3182 34.8948 13.2453 35.859 14.224C37.125 15.5096 38.3004 16.8244 39.383 18.1514C39.5307 18.3324 39.6744 18.5139 39.8185 18.6957L39.8275 18.7071C40.0481 18.9844 40.2655 19.2626 40.4777 19.5407C40.6236 19.732 40.7678 19.9239 40.9099 20.1155C41.6909 21.1705 42.4117 22.2271 43.0676 23.2779C43.1913 23.4757 43.3105 23.6736 43.4293 23.8709L43.4297 23.8716L43.4629 23.9266C43.641 24.2225 43.8137 24.5177 43.9809 24.8125L44.0279 24.8947ZM20.3905 11.3818L20.3198 11.4363C20.1775 11.5461 20.0351 11.6559 19.893 11.7693C20.6199 12.1723 21.3554 12.6159 22.0943 13.0951C22.1556 13.0466 22.2167 12.9978 22.2779 12.9489L22.2784 12.9485L22.2792 12.9478L22.2799 12.9473L22.2807 12.9467C22.3873 12.8614 22.4941 12.7761 22.601 12.6934C22.8092 12.5325 23.0172 12.3775 23.2257 12.2222L23.3209 12.1512C22.6169 11.6574 21.9142 11.1966 21.2138 10.7587C20.9391 10.9618 20.6647 11.1693 20.3905 11.3818ZM53.5664 15.9478L57.9733 12.3533V10.9607H50.9464V12.4073H55.3437L50.9464 16.0017V17.394H57.9733V15.9478H53.5664ZM61.6776 17.394C61.1691 17.394 60.739 17.3202 60.3878 17.1726C60.0361 17.0254 59.7505 16.8129 59.5297 16.5361C59.3084 16.2591 59.1494 15.9206 59.0526 15.5212C58.9555 15.122 58.9073 14.6671 58.9073 14.1558C58.9073 13.1557 59.1228 12.3732 59.5546 11.8081C59.9859 11.2432 60.6568 10.9607 61.5674 10.9607H66.0142V12.4073H62.2201C61.9654 12.4073 61.7511 12.4343 61.5772 12.4883C61.4027 12.5421 61.2607 12.614 61.1509 12.704C61.04 12.794 60.9582 12.9022 60.9047 13.0279C60.8511 13.1541 60.8208 13.2922 60.8141 13.4435H66.0142V14.9115H60.8141C60.8544 15.5878 61.3225 15.9258 62.2201 15.9258H66.0142V17.394H61.6776ZM71.7913 14.7766C71.6138 14.8235 71.3915 14.8466 71.124 14.8466H68.8446V12.4073H71.1129C71.3946 12.4073 71.626 12.4449 71.806 12.5208C71.9866 12.5962 72.1311 12.693 72.2376 12.8118C72.3448 12.9306 72.4238 13.0657 72.474 13.2168C72.5242 13.3676 72.556 13.5189 72.5689 13.6701C72.5493 13.8716 72.5125 14.0463 72.4587 14.1935C72.4054 14.3411 72.3246 14.4636 72.218 14.5604C72.1109 14.6577 71.9682 14.7299 71.7913 14.7766ZM66.9374 17.394H68.8446V16.2932H71.124L72.0368 17.394H74.1454L73.0011 16.0342C73.148 15.9693 73.2852 15.8866 73.4119 15.7856C73.5393 15.685 73.6605 15.5734 73.7738 15.4512C74.0346 15.1779 74.2225 14.8807 74.3358 14.5604C74.4497 14.2406 74.5066 13.8968 74.5066 13.5298H74.4962C74.4833 13.2059 74.416 12.9054 74.296 12.6286C74.1748 12.3517 73.9942 12.08 73.7535 11.8137C73.5129 11.5112 73.2282 11.294 72.9007 11.1605C72.5719 11.0275 72.218 10.9607 71.8366 10.9607H66.9374V17.394ZM81.3625 13.5514C81.3625 13.3932 81.3405 13.2436 81.2976 13.1033C81.2542 12.963 81.1789 12.8406 81.0717 12.7365C80.9646 12.6322 80.8207 12.5511 80.6401 12.4935C80.4595 12.436 80.2354 12.4073 79.9678 12.4073H78.7629C78.488 12.4073 78.2609 12.436 78.0803 12.4935C77.8997 12.5511 77.754 12.6322 77.6444 12.7365C77.5329 12.8406 77.4558 12.963 77.4129 13.1033C77.3695 13.2436 77.3474 13.3932 77.3474 13.5514V14.8357C77.3474 15.5626 77.7889 15.9258 78.6723 15.9258H79.9678C80.8978 15.9258 81.3625 15.5626 81.3625 14.8357V13.5514ZM80.4999 17.394H78.2205C77.7056 17.394 77.2703 17.3202 76.9158 17.1726C76.5607 17.0254 76.2754 16.8129 76.0574 16.5361C75.8401 16.2591 75.6827 15.9206 75.586 15.5212C75.4887 15.122 75.4403 14.6671 75.4403 14.1558C75.4403 13.6592 75.4936 13.2132 75.6007 12.8175C75.7078 12.4218 75.8713 12.0853 76.0929 11.8081C76.3133 11.5311 76.5919 11.3207 76.9256 11.1767C77.2605 11.0329 77.6554 10.9607 78.1103 10.9607H80.6199C81.5303 10.9607 82.2007 11.2432 82.6323 11.8081C83.0646 12.3732 83.2801 13.1557 83.2801 14.1558C83.2801 14.6671 83.2317 15.122 83.1344 15.5212C83.0376 15.9206 82.8803 16.2591 82.6635 16.5361C82.445 16.8129 82.1591 17.0254 81.8046 17.1726C81.4501 17.3202 81.0148 17.394 80.4999 17.394ZM55.2985 24.85C55.1175 24.9008 54.8983 24.9259 54.6417 24.9259H52.3986V22.2988H54.6317C54.9016 22.2988 55.1291 22.3377 55.3135 22.4151C55.4978 22.4926 55.6476 22.5951 55.763 22.7229C55.8784 22.8509 55.964 22.9943 56.0196 23.1529C56.0756 23.3118 56.1101 23.4729 56.1234 23.6353C56.1039 23.8605 56.0644 24.0521 56.0051 24.2107C55.9462 24.3695 55.8585 24.5035 55.7431 24.6121C55.6277 24.7202 55.4799 24.7997 55.2985 24.85ZM50.5213 27.669H52.3986V26.4836H55.3529C55.7282 26.4836 56.0773 26.4117 56.4003 26.2682C56.7229 26.1252 57.0031 25.8904 57.2401 25.5652C57.4972 25.2705 57.6832 24.953 57.7986 24.6121C57.9135 24.2711 57.9717 23.903 57.9717 23.5078H57.9613C57.9484 23.1745 57.8858 22.8586 57.7737 22.5602C57.662 22.2618 57.4839 21.9695 57.2401 21.6825C57.0031 21.3569 56.7216 21.119 56.3953 20.9677C56.0694 20.8166 55.7186 20.7411 55.3433 20.7411H50.5213V27.669ZM61.9433 22.351C61.6862 22.4012 61.4787 22.4731 61.3207 22.5659C61.1625 22.6591 61.0475 22.7734 60.9748 22.9089C60.9022 23.0448 60.8661 23.1975 60.8661 23.3683V24.9373C60.8661 25.1157 60.8972 25.2786 60.9603 25.4257C61.0226 25.573 61.128 25.697 61.276 25.7975C61.4242 25.8984 61.6231 25.976 61.8742 26.0298C62.1246 26.0841 62.4368 26.1114 62.8127 26.1114C63.2407 26.1114 63.5866 26.0903 63.8499 26.0476C64.1131 26.0052 64.3195 25.937 64.4682 25.8441C64.6164 25.7508 64.715 25.6252 64.7633 25.4663C64.8135 25.3073 64.838 25.1116 64.838 24.8792V23.3683C64.838 23.221 64.816 23.0796 64.7744 22.9437C64.7309 22.8083 64.6409 22.6921 64.5025 22.5951C64.3642 22.4982 64.1664 22.4207 63.9093 22.3623C63.6527 22.3044 63.3099 22.2752 62.8819 22.2752C62.5127 22.2752 62.1999 22.3007 61.9433 22.351ZM66.5278 26.3266C66.4023 26.6249 66.1887 26.8728 65.8862 27.0706C65.5825 27.2679 65.1821 27.4171 64.685 27.5182C64.1884 27.6187 63.564 27.669 62.8127 27.669C62.0884 27.669 61.4848 27.6166 61.0043 27.512C60.5236 27.4074 60.1383 27.2525 59.8486 27.0471C59.5588 26.842 59.3529 26.5938 59.2312 26.303C59.1091 26.0124 59.0482 25.6812 59.0482 25.3095V23.0889C59.0482 22.7172 59.1125 22.3839 59.2408 22.0895C59.3695 21.7948 59.5833 21.545 59.883 21.3395C60.1828 21.1344 60.5763 20.9795 61.0637 20.8744C61.5515 20.7699 62.157 20.7176 62.8819 20.7176C63.6325 20.7176 64.254 20.7662 64.7444 20.8631C65.2348 20.9601 65.6272 21.1031 65.9199 21.2933C66.2138 21.4831 66.4195 21.725 66.5376 22.0198C66.6564 22.3142 66.7158 22.6591 66.7158 23.054V25.2746C66.7158 25.6775 66.6527 26.0282 66.5278 26.3266ZM67.7438 20.7411V27.669H69.6111V20.7411H67.7438ZM78.1176 27.669H76.2901V23.8329C76.2901 23.6318 76.2705 23.438 76.2307 23.2518C76.1909 23.0658 76.1174 22.9032 76.0084 22.7637C75.9001 22.6242 75.7482 22.5121 75.5535 22.4264C75.3601 22.3413 75.1048 22.2988 74.7882 22.2988H72.5554V27.669H70.6782V20.7411H75.4997C75.875 20.7411 76.2246 20.8128 76.5466 20.956C76.8699 21.0995 77.1491 21.3337 77.3872 21.6593C77.6364 21.9615 77.8219 22.2737 77.9401 22.5951C78.0582 22.9164 78.1176 23.2559 78.1176 23.6123V27.669ZM83.5421 22.2988H86.1117V20.7411H79.1952V22.2988H81.7048V27.669H83.5421V22.2988ZM57.9613 37.5807H56.1338V33.7445C56.1338 33.5435 56.1139 33.3496 56.074 33.1635C56.035 32.9775 55.9607 32.8149 55.8519 32.6754C55.7431 32.5359 55.5916 32.4237 55.3973 32.338C55.2034 32.2529 54.9477 32.2104 54.6317 32.2104H52.3986V37.5807H50.5213V30.6528H55.3433C55.7186 30.6528 56.0678 30.7245 56.3903 30.8677C56.7129 31.0112 56.9932 31.2455 57.2302 31.571C57.4806 31.8732 57.6649 32.1853 57.7836 32.5068C57.9023 32.8283 57.9613 33.1676 57.9613 33.524V37.5807ZM60.4962 37.3423C60.842 37.5012 61.2644 37.5807 61.7652 37.5807H66.0344V35.9998H62.2984C61.8448 35.9998 61.505 35.9066 61.2815 35.7209C61.057 35.5349 60.9354 35.256 60.9154 34.8838H65.0456V33.3148H60.9154C60.9221 33.1594 60.9516 33.0143 61.0047 32.8786C61.0571 32.7432 61.1384 32.6267 61.2466 32.5299C61.3556 32.4329 61.4952 32.3556 61.6666 32.2976C61.838 32.2392 62.0487 32.2104 62.2984 32.2104H66.0344V30.6528H61.6568C60.7606 30.6528 60.1009 30.9569 59.6758 31.565C59.2511 32.1735 59.0385 33.0164 59.0385 34.0935C59.0385 34.6438 59.0859 35.1339 59.1818 35.5641C59.2768 35.9942 59.4338 36.3582 59.6509 36.6566C59.8684 36.955 60.1503 37.1837 60.4962 37.3423ZM74.0174 32.2104H71.4484V37.5807H69.6099V32.2104H67.1003V30.6528H74.0174V32.2104ZM77.3523 35.6974C77.2036 35.5968 77.0982 35.4749 77.0358 35.3314C76.9733 35.1882 76.9415 35.0273 76.9415 34.849V30.6528H75.1048V35.1863C75.1048 35.566 75.1654 35.903 75.2866 36.1974C75.4084 36.4921 75.616 36.7418 75.9093 36.9474C76.2025 37.1525 76.5931 37.3093 77.0805 37.418C77.5678 37.5267 78.1733 37.5807 78.8982 37.5807H81.4476C82.1793 37.5807 82.7878 37.5267 83.2752 37.418C83.7625 37.3093 84.1538 37.1525 84.4464 36.9474C84.7397 36.7418 84.9472 36.4921 85.0691 36.1974C85.1909 35.903 85.2515 35.566 85.2515 35.1863V30.6528H83.4044V34.849C83.4044 35.0273 83.3725 35.1882 83.3101 35.3314C83.2476 35.4749 83.1423 35.5968 82.9942 35.6974C82.8454 35.7984 82.6446 35.8779 82.3911 35.9358C82.1376 35.9942 81.8229 36.023 81.4476 36.023H81.1415V30.6642H79.2148V36.023H78.8982C78.5162 36.023 78.2003 35.9942 77.9499 35.9358C77.6995 35.8779 77.5005 35.7984 77.3523 35.6974ZM89.2427 32.2627C88.9862 32.3129 88.7787 32.3848 88.6201 32.4776C88.4621 32.5708 88.347 32.6851 88.2748 32.8205C88.2019 32.9565 88.1664 33.1092 88.1664 33.28V34.849C88.1664 35.0273 88.197 35.1903 88.2601 35.3374C88.3225 35.4846 88.4278 35.6087 88.576 35.7092C88.7242 35.8101 88.9238 35.8876 89.1742 35.9415C89.424 35.9958 89.7368 36.023 90.1121 36.023C90.5401 36.023 90.8866 36.002 91.1499 35.9593C91.4138 35.9168 91.6195 35.8487 91.767 35.7558C91.9158 35.6625 92.0144 35.5368 92.064 35.378C92.1136 35.219 92.138 35.0233 92.138 34.7909V33.28C92.138 33.1327 92.1166 32.9913 92.0738 32.8554C92.0309 32.72 91.9409 32.6038 91.8019 32.5068C91.6635 32.4099 91.4664 32.3324 91.2093 32.274C90.9521 32.2161 90.6099 32.1869 90.1819 32.1869C89.8127 32.1869 89.4999 32.2124 89.2427 32.2627ZM93.8272 36.2383C93.7023 36.5366 93.4886 36.7845 93.185 36.9823C92.8819 37.1796 92.4821 37.3288 91.9856 37.4299C91.4878 37.5304 90.8633 37.5807 90.1121 37.5807C89.3884 37.5807 88.7848 37.5283 88.3042 37.4237C87.8229 37.3191 87.4384 37.1642 87.1482 36.9588C86.858 36.7536 86.6523 36.5055 86.5305 36.2147C86.4093 35.9241 86.3486 35.5929 86.3486 35.2212V33.0005C86.3486 32.6289 86.4123 32.2956 86.5409 32.0012C86.6695 31.7064 86.8838 31.4567 87.1825 31.2512C87.4825 31.0461 87.8756 30.8912 88.3635 30.7861C88.8515 30.6815 89.457 30.6293 90.1819 30.6293C90.9331 30.6293 91.5533 30.6779 92.0444 30.7748C92.5354 30.8718 92.9266 31.0148 93.2199 31.205C93.5125 31.3948 93.7189 31.6367 93.8376 31.9315C93.9564 32.2259 94.0158 32.5708 94.0158 32.9656V35.1863C94.0158 35.5892 93.9527 35.9399 93.8272 36.2383ZM99.8799 34.7617C99.7054 34.8125 99.4856 34.8376 99.2229 34.8376H96.9791V32.2104H99.2125C99.4899 32.2104 99.717 32.251 99.8946 32.3324C100.072 32.414 100.214 32.5186 100.319 32.6462C100.425 32.774 100.503 32.9194 100.552 33.0821C100.6 33.2451 100.632 33.4076 100.645 33.5702C100.626 33.7875 100.589 33.9752 100.536 34.1341C100.484 34.293 100.405 34.4249 100.3 34.5294C100.195 34.6341 100.054 34.7114 99.8799 34.7617ZM95.1025 37.5807H96.9791V36.3953H99.2229L100.121 37.5807H102.196L101.07 36.1163C101.215 36.0465 101.35 35.9574 101.475 35.8487C101.6 35.7403 101.719 35.6204 101.832 35.4882C102.088 35.1939 102.273 34.8744 102.385 34.5294C102.497 34.1849 102.552 33.8146 102.552 33.4194H102.543C102.53 33.0708 102.463 32.7473 102.345 32.4489C102.227 32.1504 102.049 31.8577 101.812 31.571C101.575 31.2455 101.294 31.0112 100.971 30.8677C100.648 30.7245 100.3 30.6528 99.9246 30.6528H95.1025V37.5807ZM105.506 30.6528V33.3262H107.325L109.409 30.641H111.435L108.817 34.1284L111.426 37.5807H109.409L107.285 34.9535H105.506V37.5807H103.629V30.6528H105.506ZM114.044 33.2913C114.156 32.9041 114.363 32.6365 114.667 32.4894C114.969 32.3421 115.335 32.2684 115.763 32.2684H118.125V30.6528H115.368C114.254 30.6528 113.433 30.9569 112.903 31.565C112.373 32.1735 112.108 33.0164 112.108 34.0935V34.8724H117.887C117.788 35.2831 117.59 35.5682 117.29 35.7266C116.989 35.8856 116.625 35.965 116.197 35.965H112.117V37.5807H116.593C117.686 37.5807 118.502 37.2766 119.039 36.668C119.575 36.0599 119.843 35.2171 119.843 34.1398V33.2913H114.044Z" fill="white"/>
</g>
<defs>
<clipPath id="clip0_11_31">
<rect width="120" height="49.5918" fill="white"/>
</clipPath>
</defs>
</svg>
